<svg width="149" height="148" viewBox="0 0 149 148" fill="none" xmlns="http://www.w3.org/2000/svg">
<path d="M111.481 50.6039C109.021 51.6494 106.434 52.3774 103.786 52.77C105.024 52.5603 106.846 50.3593 107.571 49.4684C108.673 48.1246 109.513 46.5905 110.048 44.9441C110.048 44.8218 110.172 44.6471 110.048 44.5598C109.986 44.5261 109.916 44.5085 109.845 44.5085C109.773 44.5085 109.704 44.5261 109.641 44.5598C106.765 46.0977 103.704 47.2716 100.531 48.0535C100.42 48.0868 100.302 48.0898 100.19 48.0621C100.078 48.0344 99.9754 47.9771 99.8937 47.8962C99.6467 47.6058 99.3807 47.3315 99.0976 47.0752C97.8032 45.9301 96.3347 44.9928 94.7458 44.2977C92.6009 43.4288 90.2841 43.0525 87.9703 43.1972C85.7253 43.3372 83.5334 43.9318 81.531 44.9441C79.5591 46.0113 77.8262 47.4611 76.4361 49.2064C74.974 51.0028 73.9184 53.0875 73.3403 55.3204C72.8636 57.4443 72.8095 59.6394 73.1811 61.7837C73.1811 62.1506 73.1811 62.203 72.8627 62.1506C60.2494 60.3164 49.9004 55.8968 41.4444 46.4114C41.0729 45.9922 40.8783 45.9922 40.5776 46.4114C36.8979 51.9315 38.6847 60.6657 43.2842 64.9805C43.9034 65.5569 44.5402 66.1159 45.2125 66.64C43.1036 66.4921 41.0463 65.9278 39.1623 64.9805C38.8085 64.7534 38.6139 64.8757 38.5962 65.2949C38.5461 65.8761 38.5461 66.4605 38.5962 67.0418C38.9653 69.8273 40.0771 72.466 41.8177 74.6881C43.5583 76.9103 45.8653 78.636 48.5029 79.689C49.1459 79.9609 49.8158 80.1658 50.5019 80.3004C48.5496 80.6799 46.5473 80.7389 44.5756 80.4751C44.151 80.3877 43.9918 80.6148 44.151 81.0166C46.7515 88.004 52.3948 90.1351 56.5344 91.323C57.1005 91.4103 57.6665 91.4103 58.3034 91.5501C58.3034 91.5501 58.3034 91.5501 58.1973 91.6549C56.9766 93.8559 52.041 95.3408 49.7766 96.1094C45.6435 97.5753 41.2369 98.1356 36.8626 97.7514C36.1726 97.6466 36.0134 97.6641 35.8365 97.7514C35.6596 97.8388 35.8365 98.0309 36.0311 98.2056C36.9156 98.7821 37.8002 99.2887 38.7201 99.7778C41.4586 101.253 44.3538 102.424 47.353 103.271C62.8852 107.499 80.3634 104.389 92.0214 92.9476C101.185 83.9688 104.405 71.5836 104.405 59.1809C104.405 58.7093 104.989 58.4298 105.325 58.1852C107.643 56.4015 109.687 54.295 111.392 51.9315C111.688 51.5792 111.839 51.1306 111.817 50.6737V50.6737C111.817 50.4117 111.817 50.4641 111.481 50.6039Z" fill="white"/>
</svg>
