<svg width="148" height="148" viewBox="0 0 148 148" fill="none" xmlns="http://www.w3.org/2000/svg">
<path d="M37 107.905L42.3093 88.2972C38.0275 80.6589 36.6671 71.7457 38.4778 63.193C40.2885 54.6404 45.1489 47.0222 52.1669 41.7362C59.185 36.4502 67.8901 33.8511 76.6848 34.4158C85.4795 34.9805 93.7738 38.6711 100.046 44.8104C106.318 50.9498 110.147 59.126 110.83 67.8387C111.513 76.5515 109.005 85.2163 103.765 92.2433C98.5259 99.2702 90.9066 104.188 82.3057 106.094C73.7048 108 64.6991 106.766 56.9413 102.62L37 107.905ZM57.9029 95.2823L59.1361 96.0077C64.7553 99.3103 71.3183 100.677 77.8025 99.8948C84.2868 99.1126 90.3279 96.2254 94.9845 91.6831C99.6412 87.1409 102.652 81.1988 103.547 74.7828C104.442 68.3668 103.172 61.8373 99.9345 56.2118C96.6967 50.5864 91.6732 46.181 85.6468 43.6822C79.6205 41.1833 72.9298 40.7314 66.6174 42.3969C60.305 44.0623 54.7255 47.7516 50.7483 52.8897C46.7712 58.0279 44.6198 64.3263 44.6295 70.8034C44.6243 76.174 46.1221 81.4407 48.9564 86.0172L49.7299 87.2816L46.7616 98.2256L57.9029 95.2823Z" fill="white"/>
<path fill-rule="evenodd" clip-rule="evenodd" d="M87.8354 75.8385C87.1125 75.2603 86.266 74.8533 85.3604 74.6486C84.4548 74.4438 83.514 74.4467 82.6097 74.657C81.251 75.2167 80.3731 77.3309 79.4952 78.3879C79.3101 78.6414 79.038 78.8191 78.7302 78.8878C78.4223 78.9565 78.0997 78.9114 77.823 78.761C72.8488 76.8292 68.6794 73.2865 65.9919 68.7083C65.7627 68.4226 65.6542 68.0599 65.6893 67.6965C65.7244 67.3331 65.9003 66.9973 66.1801 66.76C67.1592 65.7988 67.8782 64.6082 68.2704 63.2985C68.3574 61.8539 68.0237 60.4148 67.3088 59.1531C66.7562 57.3841 65.7045 55.809 64.2779 54.6138C63.5421 54.2857 62.7263 54.1756 61.9289 54.297C61.1314 54.4184 60.3864 54.766 59.7838 55.2978C58.7375 56.1929 57.9071 57.3093 57.3536 58.5648C56.8001 59.8203 56.5377 61.1829 56.5856 62.5523C56.5889 63.3213 56.6872 64.087 56.8783 64.8323C57.3637 66.623 58.1101 68.3337 59.094 69.9105C59.8038 71.1183 60.5784 72.2876 61.4142 73.4134C64.1306 77.1111 67.5452 80.2507 71.4685 82.6578C73.4372 83.881 75.5413 84.8755 77.7394 85.6217C80.0226 86.6481 82.5436 87.042 85.0345 86.7617C86.4537 86.5487 87.7984 85.9931 88.9502 85.1437C90.102 84.2944 91.0256 83.1773 91.6398 81.8908C92.0006 81.1137 92.1102 80.2449 91.9533 79.4036C91.5771 77.6832 89.2568 76.6676 87.8354 75.8385Z" fill="white"/>
</svg>
