<svg width="145" height="146" viewBox="0 0 145 146" fill="none" xmlns="http://www.w3.org/2000/svg">
<path d="M55.8211 102.259V63.0905H42.8136V102.259H55.8224H55.8211ZM49.3201 57.7436C53.8551 57.7436 56.6785 54.7359 56.6785 50.9771C56.5936 47.1327 53.8551 44.209 49.4063 44.209C44.9544 44.209 42.0469 47.1327 42.0469 50.9768C42.0469 54.7356 44.8692 57.7433 49.2348 57.7433H49.319L49.3201 57.7436ZM63.0209 102.259H76.0274V80.388C76.0274 79.2189 76.1123 78.0467 76.4559 77.2117C77.3958 74.8718 79.536 72.4497 83.1301 72.4497C87.8356 72.4497 89.7191 76.0413 89.7191 81.3073V102.259H102.725V79.8011C102.725 67.7706 96.3091 62.1722 87.7514 62.1722C80.7353 62.1722 77.6539 66.0972 75.9418 68.7705H76.0284V63.0919H63.0216C63.1914 66.7663 63.0206 102.261 63.0206 102.261L63.0209 102.259Z" fill="white"/>
</svg>
